<svg width="16" height="16" viewBox="0 0 16 16" fill="none" xmlns="http://www.w3.org/2000/svg">
<path d="M7.00008 13.3327C7.00008 13.5979 7.10544 13.8523 7.29297 14.0398C7.48051 14.2273 7.73487 14.3327 8.00008 14.3327C8.2653 14.3327 8.51965 14.2273 8.70719 14.0398C8.89472 13.8523 9.00008 13.5979 9.00008 13.3327V8.99935H13.3334C13.5986 8.99935 13.853 8.89399 14.0405 8.70646C14.2281 8.51892 14.3334 8.26457 14.3334 7.99935C14.3334 7.73413 14.2281 7.47978 14.0405 7.29224C13.853 7.10471 13.5986 6.99935 13.3334 6.99935H9.00008V2.66602C9.00008 2.4008 8.89472 2.14645 8.70719 1.95891C8.51965 1.77137 8.2653 1.66602 8.00008 1.66602C7.73487 1.66602 7.48051 1.77137 7.29297 1.95891C7.10544 2.14645 7.00008 2.4008 7.00008 2.66602V6.99935H2.66675C2.40153 6.99935 2.14718 7.10471 1.95964 7.29224C1.7721 7.47978 1.66675 7.73413 1.66675 7.99935C1.66675 8.26457 1.7721 8.51892 1.95964 8.70646C2.14718 8.89399 2.40153 8.99935 2.66675 8.99935H7.00008V13.3327Z" fill="white"/>
</svg>
