<svg width="24" height="24" viewBox="0 0 24 24" fill="none" xmlns="http://www.w3.org/2000/svg">
<rect width="24" height="24" rx="4" fill="#FF5400"/>
<path d="M11 17.3332C11 17.5984 11.1054 17.8527 11.2929 18.0403C11.4805 18.2278 11.7348 18.3332 12 18.3332C12.2652 18.3332 12.5196 18.2278 12.7071 18.0403C12.8947 17.8527 13 17.5984 13 17.3332V12.9998H17.3334C17.5986 12.9998 17.8529 12.8945 18.0405 12.7069C18.228 12.5194 18.3334 12.2651 18.3334 11.9998C18.3334 11.7346 18.228 11.4803 18.0405 11.2927C17.8529 11.1052 17.5986 10.9998 17.3334 10.9998H13V6.6665C13 6.40129 12.8947 6.14693 12.7071 5.9594C12.5196 5.77186 12.2652 5.6665 12 5.6665C11.7348 5.6665 11.4805 5.77186 11.2929 5.9594C11.1054 6.14693 11 6.40129 11 6.6665V10.9998H6.66669C6.40147 10.9998 6.14712 11.1052 5.95958 11.2927C5.77204 11.4803 5.66669 11.7346 5.66669 11.9998C5.66669 12.2651 5.77204 12.5194 5.95958 12.7069C6.14712 12.8945 6.40147 12.9998 6.66669 12.9998H11V17.3332Z" fill="white"/>
</svg>
