<svg width="10" height="10" viewBox="0 0 10 10" fill="none" xmlns="http://www.w3.org/2000/svg">
<path d="M8.97716 6.69176C8.85996 6.80893 8.70102 6.87476 8.53529 6.87476C8.36956 6.87476 8.21062 6.80893 8.09341 6.69176L4.99967 3.59801L1.90591 6.69176C1.78804 6.80561 1.63016 6.86861 1.46629 6.86719C1.30242 6.86576 1.14566 6.80003 1.02978 6.68415C0.913898 6.56827 0.848167 6.41151 0.846744 6.24764C0.84532 6.08377 0.908316 5.92589 1.02217 5.80801L4.55779 2.27239C4.67499 2.15522 4.83394 2.0894 4.99967 2.0894C5.16539 2.0894 5.32434 2.15522 5.44154 2.27239L8.97716 5.80801C9.09433 5.92522 9.16016 6.08416 9.16016 6.24989C9.16016 6.41562 9.09433 6.57456 8.97716 6.69176Z" fill="#212529"/>
</svg>
