<svg width="10" height="10" viewBox="0 0 10 10" fill="none" xmlns="http://www.w3.org/2000/svg">
<path d="M1.02284 3.30811C1.14004 3.19094 1.29898 3.12512 1.46471 3.12512C1.63044 3.12512 1.78938 3.19094 1.90659 3.30811L5.00034 6.40186L8.09409 3.30811C8.21196 3.19426 8.36984 3.13127 8.53371 3.13269C8.69758 3.13412 8.85434 3.19985 8.97022 3.31573C9.0861 3.43161 9.15183 3.58836 9.15326 3.75224C9.15468 3.91611 9.09168 4.07399 8.97783 4.19186L5.44221 7.72749C5.32501 7.84466 5.16606 7.91048 5.00034 7.91048C4.83461 7.91048 4.67567 7.84466 4.55846 7.72749L1.02284 4.19186C0.905666 4.07466 0.839844 3.91572 0.839844 3.74999C0.839844 3.58426 0.905666 3.42532 1.02284 3.30811Z" fill="#212529"/>
</svg>
