<svg width="32" height="32" viewBox="0 0 32 32" fill="none" xmlns="http://www.w3.org/2000/svg">
<path d="M1.77783 15.9999C1.77783 18.8128 2.61195 21.5626 4.17471 23.9014C5.73747 26.2402 7.95867 28.0631 10.5574 29.1396C13.1562 30.216 16.0158 30.4977 18.7747 29.9489C21.5335 29.4001 24.0677 28.0456 26.0567 26.0566C28.0457 24.0676 29.4002 21.5334 29.949 18.7746C30.4978 16.0157 30.2161 13.1561 29.1397 10.5573C28.0632 7.95856 26.2403 5.73735 23.9015 4.17459C21.5627 2.61184 18.8129 1.77772 16.0001 1.77772C12.2281 1.77772 8.61061 3.27613 5.94342 5.94331C3.27624 8.61049 1.77783 12.228 1.77783 15.9999ZM28.4445 15.9999C28.4445 18.4612 27.7146 20.8672 26.3472 22.9137C24.9798 24.9602 23.0363 26.5552 20.7623 27.4971C18.4884 28.439 15.9862 28.6854 13.5723 28.2053C11.1583 27.7251 8.94089 26.5399 7.2005 24.7995C5.46012 23.0591 4.2749 20.8417 3.79473 18.4277C3.31455 16.0137 3.561 13.5116 4.50289 11.2377C5.44478 8.96373 7.03981 7.02017 9.08629 5.65276C11.1328 4.28535 13.5388 3.55549 16.0001 3.55549C19.3005 3.55549 22.4658 4.8666 24.7996 7.20039C27.1334 9.53417 28.4445 12.6995 28.4445 15.9999Z" fill="#FF5400"/>
<path d="M7.34229 15.929L14.1067 22.6934C14.1864 22.7865 14.2845 22.8621 14.3948 22.9154C14.505 22.9688 14.6252 22.9988 14.7476 23.0035C14.87 23.0082 14.9921 22.9876 15.1061 22.9429C15.2202 22.8982 15.3238 22.8304 15.4104 22.7438C15.497 22.6572 15.5648 22.5536 15.6095 22.4395C15.6542 22.3254 15.6748 22.2034 15.6701 22.081C15.6654 21.9585 15.6354 21.8384 15.582 21.7281C15.5287 21.6179 15.4531 21.5198 15.3601 21.4401L10.8267 16.889L24.1601 16.889C24.3958 16.889 24.6219 16.7954 24.7886 16.6287C24.9553 16.462 25.049 16.2359 25.049 16.0001C25.049 15.7644 24.9553 15.5383 24.7886 15.3716C24.6219 15.2049 24.3958 15.1112 24.1601 15.1112L10.6667 15.1112L15.3601 10.4179C15.4531 10.3382 15.5287 10.2401 15.582 10.1299C15.6354 10.0196 15.6654 9.89946 15.6701 9.77705C15.6748 9.65463 15.6542 9.53256 15.6095 9.41849C15.5648 9.30442 15.497 9.20083 15.4104 9.1142C15.3238 9.02757 15.2202 8.95979 15.1061 8.9151C14.9921 8.87041 14.87 8.84978 14.7476 8.85451C14.6252 8.85924 14.505 8.88922 14.3948 8.94258C14.2845 8.99593 14.1864 9.0715 14.1067 9.16455L7.34229 15.929Z" fill="#FF5400"/>
</svg>
