<svg width="19" height="19" viewBox="0 0 19 19" fill="none" xmlns="http://www.w3.org/2000/svg">
<path d="M9.875 15.7749V14.2749C9.875 12.2039 8.19605 10.5249 6.125 10.5249C4.05393 10.5249 2.375 12.2039 2.375 14.2749V15.7749H9.875ZM9.875 15.7749H15.875V15.0249C15.875 12.8158 14.196 11.2749 12.125 11.2749C11.065 11.2749 10.1077 11.744 9.42567 12.4982M8.375 6.0249C8.375 7.26754 7.36764 8.2749 6.125 8.2749C4.88236 8.2749 3.875 7.26754 3.875 6.0249C3.875 4.78226 4.88236 3.7749 6.125 3.7749C7.36764 3.7749 8.375 4.78226 8.375 6.0249ZM13.625 7.5249C13.625 8.35335 12.9534 9.0249 12.125 9.0249C11.2966 9.0249 10.625 8.35335 10.625 7.5249C10.625 6.69647 11.2966 6.0249 12.125 6.0249C12.9534 6.0249 13.625 6.69647 13.625 7.5249Z" stroke="#FF5400" stroke-width="1.5" stroke-linecap="round" stroke-linejoin="round"/>
</svg>
