<svg width="1440" height="618" viewBox="0 0 1440 618" fill="none" xmlns="http://www.w3.org/2000/svg">
<g clip-path="url(#clip0_856_3772)">
<path d="M1269.61 551.275C1208.01 573.042 1139.49 581.992 1077.39 561.799C1030.49 546.553 989.646 515.296 959.045 476.754C988.698 529.283 1041.05 567.196 1098.69 585.41C1156.33 603.669 1218.88 603.22 1278.06 590.717C1337.23 578.259 1393.37 554.199 1446.77 525.955C1446.59 497.892 1446.36 469.873 1446.18 441.81C1396.17 490.426 1335.47 528.024 1269.61 551.275Z" fill="#FFECD3"/>
<path d="M1439.95 578.693C1441.94 577.929 1444.06 577.074 1445.28 575.32C1446.59 573.476 1446.63 571.048 1446.59 568.754C1446.54 557.601 1446.5 546.492 1446.41 535.339C1394.1 564.886 1337.86 588.183 1278.91 600.011C1219.97 611.884 1158.18 612.064 1100.14 596.413C1210.08 632.347 1332.17 620.609 1439.95 578.693Z" fill="url(#paint0_linear_856_3772)"/>
</g>
<g clip-path="url(#clip1_856_3772)">
<path d="M170.385 66.7247C231.994 44.9575 300.508 36.0078 362.612 56.2009C409.507 71.447 450.354 102.704 480.955 141.246C451.302 88.7168 398.946 50.8041 341.309 32.5898C283.672 14.3306 221.116 14.7803 161.945 27.283C102.774 39.7406 46.6267 63.8015 -6.7673 92.0449C-6.58676 120.108 -6.36111 148.127 -6.1806 176.19C43.8283 127.574 104.534 89.9761 170.385 66.7247Z" fill="#FFECD3"/>
<path d="M0.0480042 39.3068C-1.93793 40.0713 -4.05927 40.9258 -5.27789 42.6798C-6.58679 44.5237 -6.63193 46.9523 -6.58679 49.2459C-6.54166 60.3994 -6.49652 71.5078 -6.40625 82.6613C45.9045 53.1137 102.142 29.8174 161.087 17.9893C220.033 6.1163 281.822 5.9364 339.865 21.5872C229.917 -14.3467 107.829 -2.60856 0.0480042 39.3068Z" fill="url(#paint1_linear_856_3772)"/>
</g>
<defs>
<linearGradient id="paint0_linear_856_3772" x1="1273.37" y1="617.777" x2="1273.37" y2="535.339" gradientUnits="userSpaceOnUse">
<stop stop-color="#FF8E32"/>
<stop offset="1" stop-color="#FF5400"/>
</linearGradient>
<linearGradient id="paint1_linear_856_3772" x1="166.634" y1="0.2229" x2="166.634" y2="82.6613" gradientUnits="userSpaceOnUse">
<stop stop-color="#FF8E32"/>
<stop offset="1" stop-color="#FF5400"/>
</linearGradient>
<clipPath id="clip0_856_3772">
<rect width="487" height="170" fill="white" transform="matrix(1 0 0 -1 959 618)"/>
</clipPath>
<clipPath id="clip1_856_3772">
<rect width="487" height="170" fill="white" transform="matrix(-1 0 0 1 481 0)"/>
</clipPath>
</defs>
</svg>
