<svg width="42" height="42" viewBox="0 0 42 42" fill="none" xmlns="http://www.w3.org/2000/svg">
<g clip-path="url(#clip0_3498_503)">
<path d="M22.7937 29.75H6.48725L16.9225 19.3147L21 22.4525L25.0775 19.313L27.8827 22.1182C28.4432 21.8214 29.0317 21.581 29.6398 21.4008L26.4757 18.2367L36.75 10.325V22.085C37.3719 22.3943 37.9587 22.7698 38.5 23.205V9.625C38.4982 8.92937 38.221 8.26277 37.7291 7.77089C37.2372 7.279 36.5706 7.00185 35.875 7H6.125C5.42937 7.00185 4.76277 7.279 4.27089 7.77089C3.779 8.26277 3.50185 8.92937 3.5 9.625V28.875C3.5 29.5712 3.77656 30.2389 4.26884 30.7312C4.76113 31.2234 5.42881 31.5 6.125 31.5H22.7937C22.7675 31.2113 22.75 30.9207 22.75 30.625C22.75 30.3293 22.7675 30.0387 22.7937 29.75ZM5.25 28.5127V10.3268L15.5243 18.2367L5.25 28.5127ZM35.875 8.75C35.8908 8.75 35.903 8.75875 35.9188 8.75875L21 20.2475L6.08125 8.75875C6.097 8.75875 6.10925 8.75 6.125 8.75H35.875ZM32.375 22.75C30.2871 22.7523 28.2854 23.5827 26.8091 25.0591C25.3327 26.5354 24.5023 28.5371 24.5 30.625C24.5125 30.9181 24.5417 31.2102 24.5875 31.5C24.7983 33.42 25.7088 35.195 27.1453 36.4862C28.5818 37.7774 30.4435 38.4943 32.375 38.5H33.25V36.75H32.375C30.9059 36.7459 29.4873 36.2131 28.3787 35.2491C27.2701 34.2851 26.5456 32.9543 26.3375 31.5C26.2871 31.2108 26.2579 30.9184 26.25 30.625C26.2492 29.4191 26.6046 28.2398 27.2716 27.2351C27.9386 26.2304 28.8875 25.4451 29.9992 24.9778C31.1109 24.5105 32.3359 24.3819 33.5204 24.6082C34.7049 24.8346 35.7962 25.4057 36.6572 26.25H35V27.1477C34.247 26.5689 33.3247 26.2535 32.375 26.25C31.6579 26.248 30.9513 26.4222 30.3173 26.7575C29.6834 27.0927 29.1416 27.5787 28.7396 28.1725C28.3376 28.7664 28.0877 29.45 28.012 30.1631C27.9363 30.8762 28.0371 31.597 28.3054 32.262C28.5737 32.9271 29.0014 33.5159 29.5508 33.9768C30.1003 34.4377 30.7545 34.7565 31.4561 34.905C32.1577 35.0536 32.885 35.0275 33.5741 34.8289C34.2632 34.6303 34.8929 34.2654 35.4077 33.7663C35.7092 34.2493 36.1598 34.621 36.6913 34.825C37.2229 35.0291 37.8064 35.0544 38.3537 34.8972C38.9009 34.74 39.382 34.4087 39.7242 33.9537C40.0664 33.4986 40.2509 32.9444 40.25 32.375V30.625C40.225 28.5442 39.3873 26.5556 37.9158 25.0842C36.4444 23.6127 34.4558 22.775 32.375 22.75ZM32.375 33.25C31.8339 33.2483 31.3066 33.0791 30.8654 32.7658C30.4243 32.4525 30.0909 32.0103 29.911 31.5C29.8074 31.2198 29.7529 30.9238 29.75 30.625C29.75 29.9288 30.0266 29.2611 30.5188 28.7688C31.0111 28.2766 31.6788 28 32.375 28C33.0712 28 33.7389 28.2766 34.2312 28.7688C34.7234 29.2611 35 29.9288 35 30.625C34.9971 30.9238 34.9426 31.2198 34.839 31.5C34.6591 32.0103 34.3257 32.4525 33.8846 32.7658C33.4434 33.0791 32.9161 33.2483 32.375 33.25ZM38.5 32.375C38.5 32.6071 38.4078 32.8296 38.2437 32.9937C38.0796 33.1578 37.8571 33.25 37.625 33.25C37.3929 33.25 37.1704 33.1578 37.0063 32.9937C36.8422 32.8296 36.75 32.6071 36.75 32.375V26.3428C37.8495 27.5003 38.4741 29.0287 38.5 30.625V32.375Z" fill="#FF5400"/>
</g>
<defs>
<clipPath id="clip0_3498_503">
<rect width="42" height="42" fill="white"/>
</clipPath>
</defs>
</svg>
