<svg width="42" height="42" viewBox="0 0 42 42" fill="none" xmlns="http://www.w3.org/2000/svg">
<path d="M14.7386 4C11.2426 4 8.53409 7.37314 8.53409 11.3514C8.53409 15.3296 11.2426 18.7027 14.7386 18.7027C18.2347 18.7027 20.9432 15.3296 20.9432 11.3514C20.9432 7.37314 18.2347 4 14.7386 4ZM14.7386 5.83784C17.1169 5.83784 19.1705 8.22449 19.1705 11.3514C19.1705 14.4782 17.1169 16.8649 14.7386 16.8649C12.3603 16.8649 10.3068 14.4782 10.3068 11.3514C10.3068 8.22449 12.3603 5.83784 14.7386 5.83784ZM30.25 8.13514C27.6931 8.13514 25.8182 10.7138 25.8182 13.6486C25.8182 16.5835 27.6931 19.1622 30.25 19.1622C32.8069 19.1622 34.6818 16.5835 34.6818 13.6486C34.6818 10.7138 32.8069 8.13514 30.25 8.13514ZM30.25 9.97297C31.6093 9.97297 32.9091 11.5084 32.9091 13.6486C32.9091 15.7889 31.6093 17.3243 30.25 17.3243C28.8907 17.3243 27.5909 15.7889 27.5909 13.6486C27.5909 11.5084 28.8907 9.97297 30.25 9.97297ZM14.7386 20.5405C11.0567 20.5405 7.72576 21.3066 5.23793 22.6368C2.75009 23.9671 1 25.9549 1 28.3514V37.0811C1.00002 37.3248 1.09342 37.5585 1.25964 37.7308C1.42586 37.9032 1.65129 38 1.88636 38H27.5909C27.826 38 28.0514 37.9032 28.2176 37.7308C28.3839 37.5585 28.4772 37.3248 28.4773 37.0811V33.8649H39.1136C39.3487 33.8648 39.5741 33.768 39.7404 33.5957C39.9066 33.4234 40 33.1897 40 32.9459V26.973C40 25.1531 38.7198 23.6415 36.9531 22.6225C35.1864 21.6034 32.841 21 30.25 21C27.8067 21 25.5926 21.5488 23.8654 22.4645C21.421 21.2501 18.2439 20.5405 14.7386 20.5405ZM14.7386 22.3784C18.1768 22.3784 21.264 23.1196 23.4222 24.2736C25.5805 25.4277 26.7045 26.9014 26.7045 28.3514V36.1622H2.77273V28.3514C2.77273 26.9014 3.89678 25.4277 6.05504 24.2736C8.21331 23.1196 11.3005 22.3784 14.7386 22.3784ZM30.25 22.8378C32.5695 22.8378 34.657 23.4014 36.0945 24.2306C37.5319 25.0598 38.2273 26.0778 38.2273 26.973V32.027H28.4773V28.3514C28.4773 26.482 27.412 24.8671 25.7628 23.6132C27.0359 23.136 28.5785 22.8378 30.25 22.8378Z" fill="#FF5400"/>
</svg>
