<svg width="42" height="42" viewBox="0 0 42 42" fill="none" xmlns="http://www.w3.org/2000/svg">
<path fill-rule="evenodd" clip-rule="evenodd" d="M17.5408 15.9108C17.3491 13.719 15.5141 12 13.2787 12C10.9157 12 9 13.9209 9 16.2905C9 18.66 10.9157 20.5809 13.2787 20.5809C15.132 20.5809 16.7102 19.3993 17.3047 17.7463H20.7793V20.0822C20.7793 20.5891 21.1891 21 21.6946 21C22.2001 21 22.6098 20.5891 22.6098 20.0822V17.7463H24.1695V20.0822C24.1695 20.5891 24.5792 21 25.0847 21C25.5902 21 26 20.5891 26 20.0822V17.7463C26 16.7326 25.1805 15.9108 24.1695 15.9108H17.5408ZM15.7268 16.2905C15.7268 17.6463 14.6308 18.7454 13.2787 18.7454C11.9266 18.7454 10.8305 17.6463 10.8305 16.2905C10.8305 14.9347 11.9266 13.8356 13.2787 13.8356C14.6308 13.8356 15.7268 14.9347 15.7268 16.2905Z" fill="#FF5400"/>
<path fill-rule="evenodd" clip-rule="evenodd" d="M24.0348 25.2938C21.8029 27.2798 18.8695 28.4851 15.6566 28.4851C8.66656 28.4851 3 22.7801 3 15.7425C3 8.70503 8.66656 3 15.6566 3C22.6467 3 28.3133 8.70503 28.3133 15.7425C28.3133 18.9298 27.151 21.8437 25.2299 24.0781L27.8347 26.7007C28.8192 26.1691 30.0719 26.3216 30.9025 27.1578L36.2382 32.5298C37.2539 33.5524 37.2539 35.2104 36.2382 36.233C35.2225 37.2557 33.5756 37.2557 32.5599 36.233L27.2242 30.8611C26.4445 30.0761 26.2633 28.9167 26.6807 27.9577L24.0348 25.2938ZM26.6144 15.7425C26.6144 21.8354 21.7084 26.7747 15.6566 26.7747C9.60482 26.7747 4.69885 21.8354 4.69885 15.7425C4.69885 9.64966 9.60482 4.71039 15.6566 4.71039C21.7084 4.71039 26.6144 9.64966 26.6144 15.7425ZM35.0369 33.7392L29.7012 28.3673C29.349 28.0126 28.7778 28.0126 28.4255 28.3673C28.0732 28.722 28.0732 29.297 28.4255 29.6517L33.7611 35.0236C34.1135 35.3783 34.6846 35.3783 35.0369 35.0236C35.3892 34.6689 35.3892 34.0939 35.0369 33.7392Z" fill="#FF5400"/>
</svg>
