<svg width="42" height="42" viewBox="0 0 42 42" fill="none" xmlns="http://www.w3.org/2000/svg">
<path d="M4.71429 7C2.65355 7 1 8.80229 1 10.9677V31.0172C1 33.1826 2.65355 35 4.71429 35H36.2857C38.3465 35 40 33.1826 40 31.0172V10.9677C40 8.80229 38.3465 7 36.2857 7H4.71429ZM4.71429 8.93103H36.2857C36.5581 8.93103 36.8217 9.00017 37.0547 9.11207L21.7043 23.8815C20.995 24.5637 20.0498 24.5638 19.3393 23.8815L3.95982 9.11207C4.18987 9.00369 4.44644 8.93103 4.71429 8.93103ZM2.88621 10.7112L13.7824 21.181L3.08929 31.9978C2.94819 31.708 2.85714 31.3796 2.85714 31.0172V10.9677C2.85714 10.879 2.87692 10.7962 2.88621 10.7112ZM38.1139 10.7262C38.1222 10.8064 38.1427 10.884 38.1427 10.9676V31.0171C38.1427 31.3718 38.0607 31.697 37.9251 31.9826L27.261 21.1658L38.1139 10.7262ZM25.9119 22.4632L36.3438 33.0688C36.3242 33.0688 36.3052 33.0688 36.2857 33.0688H4.71429C4.69943 33.0688 4.6855 33.0692 4.67064 33.0688L15.1461 22.4783L18.0769 25.2994C19.4547 26.6226 21.5889 26.6244 22.9664 25.2994L25.9119 22.4632Z" fill="#FF5400"/>
</svg>
