<svg width="42" height="42" viewBox="0 0 42 42" fill="none" xmlns="http://www.w3.org/2000/svg">
<path d="M24.3325 8.62801C26.1429 9.30437 27.7128 10.5159 28.8723 12.0801L28.908 12.1321C30.2197 13.924 31.0015 16.1713 31.0015 18.6081C31.0015 23.5798 31.9924 24.8318 32.908 25.9893C33.8797 27.2166 34.7843 28.36 34.7843 32.053C34.7843 32.5436 34.4081 32.9418 33.9446 32.9418H26.1622C25.8593 34.0033 25.2734 34.9347 24.4976 35.6342C23.5537 36.4853 22.3318 37 21.0002 37C19.6692 37 18.4478 36.4853 17.5039 35.6342C16.7281 34.9342 16.1417 34.0033 15.8383 32.9418H8.0564C7.5929 32.9418 7.21665 32.5436 7.21665 32.053C7.21665 28.3595 8.12085 27.2172 9.09246 25.9893C10.0096 24.8302 11.0025 23.5746 11.0025 18.6081C10.999 16.1498 11.7942 13.8846 13.1272 12.0854C14.2867 10.518 15.8576 9.30647 17.6685 8.62906C17.5877 8.3179 17.5441 7.99153 17.5441 7.65833C17.5441 6.6493 17.9317 5.73367 18.5568 5.072C19.1819 4.41033 20.047 4 21.0002 4C21.9535 4 22.8186 4.41033 23.4437 5.072C24.0688 5.73367 24.4564 6.64877 24.4564 7.6578C24.4564 7.991 24.4128 8.31737 24.3325 8.62801ZM36.7023 23.3962C36.4728 23.8196 35.9612 23.9655 35.5611 23.7226C35.1611 23.4796 35.0233 22.9381 35.2528 22.5147C35.8402 21.4369 35.9597 20.2054 35.6771 19.0888C35.3951 17.9732 34.7095 16.971 33.6913 16.3487C33.2912 16.1037 33.1549 15.5606 33.3864 15.1371C33.6179 14.7137 34.131 14.5694 34.531 14.8144C35.9503 15.6823 36.9046 17.0775 37.2972 18.6302C37.6893 20.1807 37.5217 21.8934 36.7023 23.3962ZM39.6013 25.4352C39.2736 25.7821 38.7422 25.7821 38.4145 25.4352C38.1275 25.1314 38.0918 24.6618 38.3079 24.3165C39.3569 22.3651 39.5676 20.145 39.0575 18.1301C38.5434 16.0979 37.2977 14.274 35.4447 13.1416C35.3792 13.1017 35.3207 13.054 35.2697 13.0005C34.9395 12.6552 34.9395 12.0927 35.2672 11.7459C35.5621 11.4337 36.0217 11.4027 36.3498 11.652C38.5692 13.0356 40.0598 15.2311 40.6775 17.6715C41.2972 20.1198 41.0404 22.819 39.7634 25.1949C39.7237 25.2815 39.6697 25.3628 39.6013 25.4352ZM6.74719 22.5147C6.97672 22.9381 6.8389 23.4796 6.43885 23.7226C6.03881 23.9655 5.52722 23.8196 5.2977 23.3962C4.47827 21.8934 4.31071 20.1807 4.70283 18.6302C5.09544 17.0775 6.04971 15.6823 7.46897 14.8144C7.86902 14.5694 8.38209 14.7137 8.6136 15.1371C8.8451 15.5606 8.70877 16.1037 8.30872 16.3487C7.29051 16.971 6.60492 17.9732 6.32286 19.0888C6.04029 20.2054 6.15976 21.4369 6.74719 22.5147ZM3.69205 24.3165C3.90818 24.6618 3.87249 25.1314 3.58547 25.4352C3.25779 25.7821 2.72638 25.7821 2.39871 25.4352C2.3303 25.3628 2.27626 25.2815 2.2366 25.1949C0.959619 22.819 0.702834 20.1198 1.32249 17.6715C1.93966 15.2311 3.4308 13.0356 5.65016 11.652C5.97833 11.4027 6.43786 11.4337 6.73282 11.7459C7.06049 12.0927 7.06049 12.6552 6.73282 13.0021C6.67928 13.054 6.62079 13.1017 6.55535 13.1416C4.70233 14.274 3.45658 16.0979 2.94251 18.1301C2.43241 20.145 2.6431 22.3651 3.69205 24.3165ZM24.3761 32.9418H17.6249C17.8529 33.4613 18.1845 33.9204 18.5925 34.2877C19.2379 34.8702 20.0792 35.2223 21.0002 35.2223C21.9223 35.2223 22.7635 34.8696 23.409 34.2877C23.8165 33.9204 24.1486 33.4613 24.3761 32.9418ZM27.5537 13.1768C26.4264 11.6562 24.8391 10.5364 23.0164 10.0579C22.9132 10.0358 22.8121 9.9928 22.7189 9.92773C22.3332 9.6575 22.2277 9.10707 22.483 8.69884C22.5757 8.55087 22.651 8.38296 22.7026 8.20089C22.7511 8.03193 22.7769 7.84933 22.7769 7.6578C22.7769 7.13886 22.5776 6.66766 22.2569 6.32817C21.9362 5.98868 21.4905 5.77774 21.0002 5.77774C20.509 5.77774 20.0643 5.98868 19.7436 6.32817C19.4229 6.66766 19.2236 7.13834 19.2236 7.65833C19.2236 7.83778 19.2464 8.01042 19.2885 8.17098L19.2979 8.20141C19.3495 8.38296 19.4248 8.55087 19.5175 8.69937C19.5691 8.78332 19.6087 8.87777 19.6325 8.98062C19.7411 9.45601 19.465 9.93508 19.0159 10.05C17.1802 10.5249 15.58 11.6488 14.4458 13.1789C13.3383 14.6712 12.6785 16.5575 12.6785 18.6081C12.6746 24.2252 11.4809 25.7343 10.3784 27.128C9.6913 27.9964 9.04636 28.8113 8.91896 31.1641H33.082C32.9546 28.8113 32.3092 27.9959 31.6221 27.128C30.5172 25.7312 29.322 24.221 29.322 18.6081C29.322 16.5759 28.6741 14.7053 27.5854 13.2172L27.5537 13.1768Z" fill="#FF5400"/>
</svg>
