<svg width="42" height="42" viewBox="0 0 42 42" fill="none" xmlns="http://www.w3.org/2000/svg">
<path d="M8.55919 6.52C9.17359 5.92 9.56857 5.12 9.56857 4.24C9.56857 2.44 7.98867 1 6.05768 1C4.12669 1 2.5029 2.44 2.5029 4.24C2.5029 5.12 2.89788 5.92 3.51228 6.52C2.32736 7 1.40575 8 1.23021 9.24L1.01078 10.6C0.96689 10.96 1.05466 11.32 1.31798 11.56C1.5813 11.84 1.93238 12 2.32736 12H9.65634C10.0513 12 10.4024 11.84 10.6657 11.56C10.929 11.28 11.0607 10.92 10.9729 10.6L10.7535 9.24C10.6657 8 9.74411 6.96 8.55919 6.52ZM6.05768 2.24C7.2426 2.24 8.2081 3.12 8.2081 4.2C8.2081 5.28 7.2426 6.16 6.05768 6.16C4.87275 6.16 3.86337 5.32 3.86337 4.24C3.86337 3.16 4.82887 2.24 6.05768 2.24ZM2.37125 10.76L2.59068 9.4C2.76622 8.28 3.81949 7.48 5.0483 7.48H7.06706C8.29587 7.48 9.34913 8.32 9.52468 9.4L9.74411 10.76H2.37125Z" fill="#FF5400"/>
<path d="M39.25 4H14.75C13.7917 4 13 4.76 13 5.68V9.32C13 10.24 13.7917 11 14.75 11H39.25C40.2083 11 41 10.24 41 9.32V5.68C41 4.76 40.2083 4 39.25 4ZM39.7083 9.32C39.7083 9.56 39.5 9.72 39.2917 9.72H14.75C14.5 9.72 14.3333 9.52 14.3333 9.32V5.68C14.3333 5.44 14.5417 5.28 14.75 5.28H39.25C39.5 5.28 39.6667 5.48 39.6667 5.68V9.32H39.7083Z" fill="#FF5400"/>
<path d="M8.60307 20.5236C9.21748 19.8145 9.61245 18.8691 9.61245 17.8291C9.61245 15.7018 8.03255 14 6.05768 14C4.0828 14 2.5029 15.7018 2.5029 17.8291C2.5029 18.8691 2.89788 19.8145 3.51228 20.5236C2.32736 21.0909 1.40575 22.2727 1.23021 23.7382L1.01078 25.3455C0.96689 25.7709 1.05466 26.1964 1.31798 26.48C1.5813 26.8109 1.93238 27 2.32736 27H9.65634C10.0513 27 10.4024 26.8109 10.6657 26.48C10.929 26.1491 11.0607 25.7236 10.9729 25.3455L10.7535 23.7382C10.7096 22.2727 9.788 21.0909 8.60307 20.5236ZM6.10156 15.5127C7.28649 15.5127 8.25198 16.5527 8.25198 17.8291C8.25198 19.1055 7.28649 20.1455 6.10156 20.1455C4.91664 20.1455 3.90726 19.1055 3.90726 17.8291C3.90726 16.5527 4.87275 15.5127 6.10156 15.5127ZM2.41513 25.5818L2.63456 23.9745C2.81011 22.6509 3.86337 21.7055 5.09218 21.7055H7.11094C8.33975 21.7055 9.39302 22.6982 9.56857 23.9745L9.788 25.5818H2.41513Z" fill="#FF5400"/>
<path d="M33.2058 17H14.7942C13.8117 17 13 17.8686 13 18.92V23.08C13 24.1314 13.8117 25 14.7942 25H33.2058C34.1883 25 35 24.1314 35 23.08V18.92C35 17.8229 34.1883 17 33.2058 17ZM33.6757 23.0343C33.6757 23.3086 33.4621 23.4914 33.2485 23.4914H14.7942C14.5379 23.4914 14.367 23.2629 14.367 23.0343V18.8743C14.367 18.6 14.5806 18.4171 14.7942 18.4171H33.2058C33.4621 18.4171 33.633 18.6457 33.633 18.8743V23.0343H33.6757Z" fill="#FF5400"/>
<path d="M8.53692 34.5C9.14598 33.9022 9.53752 33.1051 9.53752 32.2283C9.53752 30.4348 7.97136 29 6.01367 29C4.05598 29 2.48983 30.4348 2.48983 32.2283C2.48983 33.1051 2.88137 33.9022 3.49042 34.5C2.31581 34.9783 1.40222 35.9746 1.2282 37.2101L1.01068 38.5652C0.967178 38.9239 1.05419 39.2826 1.31521 39.5217C1.61974 39.8406 2.01128 40 2.40282 40H9.66803C10.0596 40 10.4076 39.8406 10.6686 39.5616C10.9297 39.2826 11.0602 38.9239 10.9732 38.6051L10.7991 37.2101C10.6251 35.9746 9.71153 34.9783 8.53692 34.5ZM6.05718 30.2754C7.23179 30.2754 8.18888 31.1522 8.18888 32.2283C8.18888 33.3043 7.23179 34.1812 6.05718 34.1812C4.88256 34.1812 3.88196 33.3442 3.88196 32.2681C3.88196 31.1522 4.83906 30.2754 6.05718 30.2754ZM2.40282 38.7645L2.62034 37.4094C2.79436 36.2935 3.83846 35.4964 5.05658 35.4964H7.05777C8.27589 35.4964 9.31999 36.3333 9.49401 37.4094L9.71153 38.7645H2.40282Z" fill="#FF5400"/>
<path d="M26.2402 31H14.7598C13.7961 31 13 31.76 13 32.68V36.32C13 37.24 13.7961 38 14.7598 38H26.2402C27.2039 38 28 37.24 28 36.32V32.68C28 31.76 27.2039 31 26.2402 31ZM26.7011 36.32C26.7011 36.56 26.4916 36.72 26.2821 36.72H14.7598C14.5084 36.72 14.3408 36.52 14.3408 36.32V32.68C14.3408 32.44 14.5503 32.28 14.7598 32.28H26.2402C26.4916 32.28 26.6592 32.48 26.6592 32.68V36.32H26.7011Z" fill="#FF5400"/>
</svg>
