<svg width="42" height="42" viewBox="0 0 42 42" fill="none" xmlns="http://www.w3.org/2000/svg">
<path d="M27.7061 1C27.6977 1.00072 27.6894 1.00156 27.681 1.00254H7.12618C5.40943 1.00254 4 2.27882 4 3.84173V37.1608C4 38.7237 5.40943 40 7.12618 40H35.8695C37.5863 40 39 38.7245 39 37.1608V11.2523C38.9982 11.2462 38.9964 11.2401 38.9944 11.234C38.9923 11.1572 38.9757 11.0812 38.9454 11.0095C38.9418 11.0011 38.9381 10.9928 38.9342 10.9846C38.8977 10.9067 38.8454 10.8359 38.78 10.7758L28.2275 1.19712C28.1588 1.13453 28.0773 1.08492 27.9875 1.05112C27.8978 1.01732 27.8032 0.999842 27.7061 1ZM7.12534 2.34868H26.9714V9.08288C26.9714 10.6466 28.3808 11.9221 30.0975 11.9221H37.524V37.1609C37.524 37.9984 36.7971 38.6553 35.8687 38.6553H7.12534C6.19689 38.6553 5.47581 37.9992 5.47581 37.1609V3.84181C5.47581 3.00353 6.19689 2.34868 7.12534 2.34868ZM28.4466 3.29551L35.5244 9.71717L36.4723 10.5773H30.0975C29.1691 10.5773 28.4466 9.92041 28.4466 9.08288V3.29551ZM27.6744 18.131C27.5774 18.1307 27.4813 18.1478 27.3916 18.1813C27.3019 18.2149 27.2203 18.2642 27.1515 18.3265C27.0827 18.3889 27.0281 18.463 26.9908 18.5445C26.9534 18.6261 26.9341 18.7136 26.9339 18.802V34.0039C26.9341 34.0923 26.9534 34.1798 26.9908 34.2614C27.0281 34.343 27.0827 34.4171 27.1515 34.4794C27.2203 34.5417 27.3019 34.5911 27.3916 34.6246C27.4813 34.6582 27.5774 34.6753 27.6744 34.675H32.7108C32.9057 34.6743 33.0924 34.6033 33.23 34.4776C33.3677 34.3518 33.4452 34.1815 33.4456 34.0039V18.802C33.4452 18.6244 33.3677 18.4541 33.23 18.3284C33.0924 18.2027 32.9057 18.1317 32.7108 18.131H27.6744ZM28.4091 19.477H31.9704V33.3289H28.4091V19.477ZM18.9788 21.4863C18.7839 21.487 18.5973 21.558 18.4596 21.6837C18.322 21.8094 18.2445 21.9797 18.2441 22.1573V34.0039C18.2445 34.1815 18.322 34.3518 18.4596 34.4776C18.5973 34.6033 18.7839 34.6743 18.9788 34.675H24.0152C24.1122 34.6753 24.2083 34.6582 24.298 34.6246C24.3878 34.5911 24.4694 34.5417 24.5381 34.4794C24.6069 34.4171 24.6615 34.343 24.6989 34.2614C24.7362 34.1798 24.7555 34.0923 24.7557 34.0039V22.1573C24.7555 22.0689 24.7362 21.9814 24.6989 21.8998C24.6615 21.8182 24.6069 21.7442 24.5381 21.6818C24.4694 21.6195 24.3878 21.5701 24.298 21.5366C24.2083 21.503 24.1122 21.4859 24.0152 21.4863H18.9788ZM19.7193 22.8323H23.2805V33.3289H19.7193V22.8323ZM10.289 26.7575C10.0933 26.7583 9.90604 26.8298 9.76826 26.9564C9.63048 27.0829 9.5535 27.2542 9.55424 27.4325V34.0039C9.55464 34.1815 9.63213 34.3518 9.76979 34.4776C9.90745 34.6033 10.0941 34.6743 10.289 34.675H15.3254C15.4224 34.6753 15.5185 34.6582 15.6082 34.6246C15.6979 34.5911 15.7795 34.5417 15.8483 34.4794C15.917 34.4171 15.9717 34.343 16.009 34.2614C16.0463 34.1798 16.0656 34.0923 16.0658 34.0039V27.4325C16.0662 27.3438 16.0473 27.2559 16.0102 27.1738C15.9732 27.0918 15.9186 27.0173 15.8498 26.9545C15.781 26.8918 15.6992 26.8421 15.6092 26.8082C15.5192 26.7744 15.4227 26.7572 15.3254 26.7575H10.289ZM11.0294 28.1036H14.5907V33.3289H11.0294V28.1036Z" fill="#FF5400"/>
</svg>
