<svg width="42" height="42" viewBox="0 0 42 42" fill="none" xmlns="http://www.w3.org/2000/svg">
<path d="M9.75515 3C9.50681 3 9.26864 3.09839 9.09303 3.27352C8.91743 3.44865 8.81877 3.68618 8.81877 3.93386V5.75489H5.6819C4.44018 5.75489 3.24932 6.24683 2.3713 7.12249C1.49327 7.99816 1 9.18581 1 10.4242V27.4204C1 28.6588 1.49327 29.8465 2.3713 30.7221C3.24932 31.5978 4.44018 32.0897 5.6819 32.0897H18.2294C18.9046 33.6871 19.9393 35.1081 21.2533 36.2428C22.5674 37.3776 24.1256 38.1955 25.8074 38.6335C27.4892 39.0714 29.2495 39.1176 30.9521 38.7684C32.6547 38.4192 34.2538 37.684 35.6259 36.6197C36.9979 35.5555 38.106 34.1906 38.8645 32.6309C39.6229 31.0711 40.0114 29.3582 39.9997 27.6247C39.9881 25.8912 39.5767 24.1837 38.7974 22.6342C38.0181 21.0846 36.8918 19.7347 35.5056 18.6888V10.4709C35.5056 9.8577 35.3845 9.25052 35.1492 8.68402C34.9139 8.11751 34.5691 7.60277 34.1343 7.16919C33.6996 6.7356 33.1834 6.39166 32.6154 6.15701C32.0474 5.92235 31.4385 5.80158 30.8237 5.80158H27.6868V3.93386C27.6868 3.68618 27.5882 3.44865 27.4126 3.27352C27.237 3.09839 26.9988 3 26.7505 3C26.5021 3 26.2639 3.09839 26.0883 3.27352C25.9127 3.44865 25.8141 3.68618 25.8141 3.93386V5.75489H10.6915V3.93386C10.6915 3.68618 10.5929 3.44865 10.4173 3.27352C10.2417 3.09839 10.0035 3 9.75515 3ZM38.1743 27.7006C38.1743 29.5641 37.6208 31.3858 36.5836 32.9358C35.5465 34.4859 34.0722 35.6948 32.3468 36.41C30.6214 37.1253 28.7222 37.3148 26.8889 36.9546C25.0557 36.5944 23.3705 35.7008 22.046 34.3863C20.7215 33.0719 19.8171 31.3957 19.4469 29.5691C19.0767 27.7426 19.2573 25.8476 19.966 24.1234C20.6746 22.3991 21.8795 20.9228 23.4286 19.8808C24.9777 18.8388 26.8015 18.2778 28.67 18.2686C31.1826 18.2686 33.593 19.2608 35.3741 21.0283C37.1551 22.7958 38.1619 25.1948 38.1743 27.7006ZM25.8609 7.62261V8.9767C25.8609 9.22438 25.9595 9.46191 26.1352 9.63704C26.3108 9.81217 26.5489 9.91056 26.7973 9.91056C27.0456 9.91056 27.2838 9.81217 27.4594 9.63704C27.635 9.46191 27.7337 9.22438 27.7337 8.9767V7.6693H30.8237C31.5687 7.6693 32.2832 7.96447 32.8101 8.48986C33.3369 9.01526 33.6328 9.72785 33.6328 10.4709V17.5215C31.7091 16.5842 29.5583 16.2096 27.4299 16.4413C25.3014 16.673 23.2823 17.5014 21.6066 18.8306C19.9309 20.1597 18.6671 21.9352 17.9616 23.9514C17.2562 25.9675 17.138 28.1417 17.6207 30.222H5.6819C4.93687 30.222 4.22235 29.9268 3.69554 29.4014C3.16872 28.8761 2.87276 28.1635 2.87276 27.4204V10.4709C2.87276 9.72785 3.16872 9.01526 3.69554 8.48986C4.22235 7.96447 4.93687 7.6693 5.6819 7.6693H8.81877V9.0234C8.81877 9.27107 8.91743 9.5086 9.09303 9.68373C9.26864 9.85887 9.50681 9.95725 9.75515 9.95725C10.0035 9.95725 10.2417 9.85887 10.4173 9.68373C10.5929 9.5086 10.6915 9.27107 10.6915 9.0234V7.6693L25.8609 7.62261Z" fill="#FF5400"/>
<path d="M33.0977 28.0368H29.8045V22.9816C29.8045 22.7213 29.7095 22.4716 29.5402 22.2875C29.371 22.1034 29.1415 22 28.9023 22C28.663 22 28.4335 22.1034 28.2643 22.2875C28.0951 22.4716 28 22.7213 28 22.9816V29.0184C28 29.2787 28.0951 29.5284 28.2643 29.7125C28.4335 29.8966 28.663 30 28.9023 30H33.0977C33.337 30 33.5665 29.8966 33.7357 29.7125C33.9049 29.5284 34 29.2787 34 29.0184C34 28.7581 33.9049 28.5084 33.7357 28.3243C33.5665 28.1402 33.337 28.0368 33.0977 28.0368Z" fill="#FF5400"/>
</svg>
