<svg width="42" height="42" viewBox="0 0 42 42" fill="none" xmlns="http://www.w3.org/2000/svg">
<g clip-path="url(#clip0_3498_526)">
<path d="M16.5 22.1008C16.7786 22.1008 17.0458 21.9902 17.2428 21.7932C17.4397 21.5962 17.5504 21.329 17.5504 21.0504C17.5504 20.7718 17.4397 20.5047 17.2428 20.3077C17.0458 20.1107 16.7786 20 16.5 20C15.2148 20 13.9584 20.381 12.8897 21.0949C11.8209 21.8087 10.9878 22.8234 10.4956 24.0106C10.0034 25.1978 9.87416 26.5044 10.1243 27.765C10.3744 29.0256 10.9926 30.1838 11.9008 31.0932C12.809 32.0026 13.9664 32.6223 15.2268 32.8741C16.4871 33.1258 17.7938 32.9983 18.9816 32.5076C20.1695 32.0169 21.1852 31.1851 21.9005 30.1173C22.6157 29.0495 22.9983 27.7936 23 26.5084C23 26.2298 22.8893 25.9626 22.6923 25.7656C22.4953 25.5687 22.2282 25.458 21.9496 25.458C21.671 25.458 21.4038 25.5687 21.2068 25.7656C21.0098 25.9626 20.8992 26.2298 20.8992 26.5084C20.8992 27.3805 20.6404 28.233 20.1558 28.958C19.6711 29.683 18.9822 30.2479 18.1763 30.5813C17.3705 30.9146 16.4838 31.0014 15.6286 30.8306C14.7734 30.6599 13.9881 30.2393 13.372 29.622C12.7559 29.0048 12.3368 28.2186 12.1677 27.3631C11.9986 26.5076 12.0871 25.6211 12.422 24.8159C12.7568 24.0106 13.3231 23.3229 14.049 22.8396C14.7749 22.3563 15.6279 22.0992 16.5 22.1008Z" fill="#FF5400"/>
<path d="M2.26542 29.9174L3.82182 30.1907C4.0178 30.7898 4.25902 31.373 4.54339 31.9354L3.63723 33.2302C3.26818 33.7565 3.09652 34.3965 3.15255 35.0373C3.20858 35.678 3.48871 36.2784 3.94348 36.7323L5.25656 38.0481C5.7095 38.5039 6.30855 38.7846 6.94795 38.8408C7.58735 38.8969 8.22599 38.7249 8.75113 38.355L10.0432 37.447C10.6045 37.7318 11.1865 37.9735 11.7842 38.1701L12.0569 39.7298C12.165 40.3657 12.4944 40.9426 12.9867 41.3582C13.479 41.7738 14.1023 42.0012 14.746 42H16.6045C17.2489 42.0022 17.8732 41.7753 18.3663 41.3596C18.8595 40.9439 19.1895 40.3664 19.2977 39.7298L19.5704 38.1701C20.1682 37.9736 20.7502 37.7319 21.3114 37.447L22.6035 38.355C23.1287 38.7249 23.7673 38.8969 24.4067 38.8408C25.0461 38.7846 25.6451 38.5039 26.0981 38.0481L27.4112 36.7323C27.8659 36.2784 28.1461 35.678 28.2021 35.0373C28.2581 34.3965 28.0865 33.7565 27.7174 33.2302L26.8113 31.9354C27.0955 31.373 27.3368 30.7897 27.5328 30.1907L29.0892 29.9174C29.2292 29.8993 29.3641 29.8529 29.4857 29.7811C29.6073 29.7093 29.7132 29.6135 29.7968 29.4996C29.8805 29.3856 29.9402 29.2559 29.9724 29.1182C30.0046 28.9804 30.0087 28.8376 29.9843 28.6983C29.9599 28.5589 29.9075 28.426 29.8305 28.3075C29.7534 28.189 29.6531 28.0874 29.5357 28.0088C29.4184 27.9302 29.2863 27.8763 29.1476 27.8503C29.0088 27.8243 28.8662 27.8267 28.7285 27.8574L26.5386 28.2442C26.3411 28.2765 26.157 28.3651 26.0083 28.4992C25.8595 28.6334 25.7524 28.8075 25.6995 29.0009C25.4666 29.8719 25.1211 30.7086 24.6717 31.4898C24.5728 31.6623 24.525 31.8595 24.5339 32.0583C24.5428 32.2572 24.6081 32.4493 24.7221 32.6122L26.01 34.4326C26.1012 34.5578 26.1443 34.7119 26.1311 34.8664C26.118 35.0209 26.0497 35.1654 25.9387 35.2734L24.6256 36.5893C24.5178 36.7006 24.3736 36.7691 24.2194 36.7822C24.0652 36.7953 23.9115 36.7522 23.7866 36.6608L21.9659 35.3996C21.8033 35.2853 21.6115 35.2199 21.4131 35.211C21.2148 35.202 21.0179 35.25 20.8458 35.3491C20.0689 35.7988 19.2368 36.1451 18.3706 36.3791C18.1776 36.4321 18.0038 36.5394 17.87 36.6885C17.7361 36.8376 17.6478 37.022 17.6155 37.2199L17.2295 39.4145C17.1938 39.554 17.1124 39.6776 16.9983 39.7652C16.8842 39.8529 16.744 39.8996 16.6003 39.8979H14.746C14.5951 39.8983 14.4489 39.8455 14.3331 39.7486C14.2172 39.6517 14.1392 39.517 14.1125 39.3682L13.7266 37.1737C13.6943 36.9758 13.606 36.7913 13.4721 36.6423C13.3382 36.4932 13.1645 36.3858 12.9715 36.3329C12.1028 36.102 11.2679 35.7585 10.4879 35.3113C10.3157 35.2121 10.1189 35.1642 9.92054 35.1731C9.72215 35.1821 9.53042 35.2475 9.36781 35.3617L7.54712 36.623C7.42215 36.7144 7.26844 36.7575 7.11427 36.7444C6.9601 36.7312 6.81586 36.6627 6.70809 36.5515L5.41598 35.2734C5.30496 35.1654 5.23661 35.0209 5.2235 34.8664C5.2104 34.7119 5.25342 34.5578 5.34466 34.4326L6.60321 32.608C6.71962 32.4476 6.78812 32.2573 6.80075 32.0593C6.81338 31.8613 6.7696 31.6638 6.67452 31.4898C6.22562 30.7113 5.88009 29.8775 5.64671 29.0093C5.59388 28.8159 5.48672 28.6418 5.33798 28.5076C5.18924 28.3735 5.00517 28.285 4.80768 28.2526L2.61781 27.8658C2.46941 27.8371 2.33587 27.7569 2.24071 27.6392C2.14555 27.5216 2.09488 27.374 2.09761 27.2226V25.3644C2.09721 25.2132 2.14998 25.0667 2.24665 24.9506C2.34331 24.8345 2.47769 24.7563 2.6262 24.7296L4.81607 24.3428C5.01356 24.3105 5.19763 24.2219 5.34637 24.0878C5.49511 23.9536 5.60227 23.7795 5.6551 23.5861C5.88818 22.7165 6.23372 21.8812 6.68291 21.1014C6.78186 20.9289 6.82968 20.7317 6.82076 20.5329C6.81185 20.334 6.74657 20.1419 6.63257 19.979L5.37403 18.1544C5.28279 18.0291 5.23976 17.8751 5.25287 17.7206C5.26597 17.5661 5.33433 17.4216 5.44534 17.3136L6.71228 16.0145C6.81898 15.902 6.96268 15.8319 7.11688 15.8172C7.27108 15.8025 7.42538 15.8442 7.55131 15.9346L9.37201 17.1958C9.53462 17.3101 9.72635 17.3755 9.92474 17.3844C10.1231 17.3934 10.3199 17.3454 10.4921 17.2463C11.2703 16.7963 12.1038 16.45 12.9715 16.2163C13.1645 16.1633 13.3382 16.056 13.4721 15.9069C13.606 15.7578 13.6943 15.5734 13.7266 15.3755L14.1125 13.1809C14.147 12.9137 14.0773 12.6435 13.918 12.4265C13.7586 12.2094 13.5219 12.0623 13.2571 12.0158C12.9923 11.9692 12.7198 12.0267 12.4962 12.1764C12.2727 12.3261 12.1153 12.5564 12.0569 12.8194L11.7842 14.3791C11.1864 14.5756 10.6044 14.8173 10.0432 15.1022L8.75113 14.1941C8.22599 13.8243 7.58735 13.6523 6.94795 13.7084C6.30855 13.7646 5.7095 14.0453 5.25656 14.501L3.94348 15.8169C3.48935 16.2713 3.21 16.8719 3.15473 17.5127C3.09947 18.1534 3.27184 18.7931 3.64143 19.3189L4.54758 20.6138C4.26325 21.1762 4.02203 21.7594 3.82601 22.3585L2.26542 22.6612C1.62944 22.7697 1.05261 23.1011 0.637713 23.5962C0.222821 24.0913 -0.00316478 24.7179 3.34876e-05 25.3644V27.2268C-0.00018326 27.8711 0.227156 28.4948 0.641786 28.9872C1.05642 29.4797 1.63158 29.8092 2.26542 29.9174Z" fill="#FF5400"/>
<path d="M40.4613 11.8261L39.2825 11.2787C39.1724 10.3775 38.9371 9.49597 38.5836 8.65969L39.3288 7.5944C39.6863 7.08506 39.8528 6.46591 39.7989 5.84592C39.745 5.22592 39.4742 4.6448 39.0341 4.20483L37.7711 2.94164C37.3311 2.5015 36.7501 2.23063 36.1302 2.17672C35.5103 2.12281 34.8912 2.2893 34.3819 2.6469L33.3294 3.40902C32.4932 3.05545 31.6118 2.8202 30.7107 2.71005L30.1634 1.53108C29.9011 0.965871 29.4477 0.51146 28.8831 0.247997C28.3185 -0.0154662 27.679 -0.071055 27.0774 0.0910359L25.3933 0.545785C24.7855 0.704037 24.2538 1.07356 23.8935 1.58818C23.5333 2.10279 23.368 2.72887 23.4272 3.35428L23.5409 4.61748C22.8182 5.1659 22.1737 5.81047 21.6253 6.53332L20.3328 6.41963C19.7132 6.36474 19.094 6.53013 18.5842 6.88671C18.0745 7.24328 17.7067 7.76821 17.5457 8.36916L17.091 10.0534C16.929 10.6551 16.9845 11.2946 17.248 11.8593C17.5114 12.424 17.9657 12.8775 18.5309 13.1398L19.7097 13.6872C19.8199 14.5884 20.0551 15.4699 20.4086 16.3062L19.6634 17.3715C19.3058 17.8808 19.1394 18.5 19.1933 19.12C19.2472 19.74 19.518 20.3211 19.9581 20.7611L21.2211 22.0243C21.6611 22.4644 22.2421 22.7353 22.862 22.7892C23.4819 22.8431 24.101 22.6766 24.6103 22.319L25.6754 21.5737C26.5021 21.9351 27.3749 22.1803 28.2688 22.3022L28.8162 23.4812C29.0805 24.0432 29.5341 24.4942 30.0976 24.7552C30.6611 25.0162 31.2985 25.0705 31.898 24.9086L33.582 24.4538C34.1837 24.2936 34.7095 23.9262 35.0668 23.4163C35.4242 22.9063 35.5902 22.2867 35.5355 21.6664L35.4218 20.3737C35.7827 20.0997 36.1245 19.8015 36.4449 19.481C36.7772 19.1591 37.0867 18.8144 37.3711 18.4494L38.6636 18.5631C39.2832 18.618 39.9024 18.4526 40.4122 18.096C40.9219 17.7395 41.2897 17.2145 41.4507 16.6136L41.9054 14.9293C42.0716 14.3248 42.0176 13.6809 41.7531 13.1125C41.4886 12.5441 41.0308 12.0882 40.4613 11.8261ZM39.8761 14.3525L39.4214 16.0367C39.3907 16.1647 39.3153 16.2775 39.2087 16.3547C39.1022 16.4319 38.9716 16.4685 38.8404 16.4578L36.9501 16.3104C36.7622 16.2944 36.5735 16.3294 36.4038 16.4116C36.2341 16.4939 36.0898 16.6204 35.986 16.7778C35.4048 17.6554 34.6531 18.4071 33.7757 18.9884C33.6183 19.0922 33.4918 19.2366 33.4095 19.4063C33.3273 19.576 33.2923 19.7647 33.3083 19.9526L33.4767 21.8432C33.4874 21.9744 33.4508 22.105 33.3736 22.2116C33.2964 22.3181 33.1837 22.3936 33.0557 22.4243L31.3717 22.879C31.2463 22.9131 31.113 22.9017 30.9951 22.847C30.8773 22.7923 30.7825 22.6978 30.7276 22.5801L29.9234 20.8537C29.8433 20.6826 29.7185 20.5363 29.5621 20.4303C29.4058 20.3244 29.2237 20.2626 29.0351 20.2516C27.9803 20.1938 26.9485 19.9201 26.0038 19.4474C25.8349 19.3632 25.6463 19.3262 25.4581 19.3403C25.2699 19.3543 25.089 19.419 24.9344 19.5274L23.3893 20.6179C23.2829 20.6924 23.1536 20.7269 23.0242 20.7153C22.8948 20.7038 22.7736 20.6469 22.682 20.5548L21.419 19.2916C21.3337 19.199 21.2825 19.0801 21.2741 18.9545C21.2657 18.8288 21.3005 18.7041 21.3727 18.601L22.4631 17.0431C22.5691 16.8899 22.6324 16.7113 22.6465 16.5255C22.6605 16.3397 22.6249 16.1536 22.5431 15.9862C22.0712 15.0468 21.7961 14.0209 21.7348 12.9714C21.7238 12.7828 21.662 12.6007 21.556 12.4443C21.4501 12.2879 21.3038 12.163 21.1327 12.0829L19.4066 11.2787C19.2889 11.2237 19.1943 11.129 19.1397 11.0111C19.085 10.8933 19.0736 10.7599 19.1077 10.6345L19.5624 8.95023C19.5931 8.82227 19.6685 8.7095 19.775 8.63229C19.8816 8.55507 20.0122 8.5185 20.1433 8.52916L22.0337 8.69759C22.2216 8.7136 22.4103 8.67864 22.58 8.59638C22.7496 8.51413 22.894 8.38763 22.9978 8.23021C23.579 7.35263 24.3306 6.60088 25.2081 6.01962C25.369 5.91493 25.498 5.76808 25.5812 5.59508C25.6643 5.42208 25.6984 5.22957 25.6796 5.03854L25.5112 3.14796C25.5006 3.0168 25.5371 2.88615 25.6143 2.7796C25.6915 2.67304 25.8043 2.5976 25.9322 2.56689L27.6163 2.11214C27.7417 2.07812 27.875 2.08945 27.9929 2.14414C28.1107 2.19884 28.2055 2.29338 28.2604 2.4111L29.0646 4.13746C29.1446 4.30856 29.2695 4.45484 29.4258 4.56082C29.5822 4.66681 29.7643 4.72858 29.9529 4.73958C31.0023 4.80092 32.0281 5.07603 32.9673 5.54803C33.1375 5.63182 33.3273 5.66785 33.5163 5.65228C33.7054 5.6367 33.8867 5.57011 34.0409 5.4596L35.5986 4.36905C35.7051 4.29458 35.8344 4.26008 35.9638 4.27164C36.0932 4.28319 36.2144 4.34006 36.3059 4.43221L37.569 5.6954C37.6611 5.78699 37.718 5.90817 37.7295 6.03758C37.7411 6.16699 37.7066 6.29632 37.6321 6.40279L36.5291 7.94809C36.4207 8.10265 36.3561 8.2836 36.342 8.47184C36.3279 8.66008 36.3649 8.84864 36.4491 9.0176C36.921 9.95699 37.1961 10.9829 37.2574 12.0324C37.2684 12.221 37.3302 12.4031 37.4362 12.5595C37.5421 12.7159 37.6884 12.8408 37.8595 12.9209L39.5856 13.7251C39.7056 13.7779 39.8029 13.8718 39.86 13.9898C39.9171 14.1079 39.9303 14.2424 39.8972 14.3693L39.8761 14.3525Z" fill="#FF5400"/>
<path d="M29.5 8C28.61 8 27.74 8.26392 26.9999 8.75839C26.2599 9.25285 25.6831 9.95566 25.3425 10.7779C25.0019 11.6002 24.9128 12.505 25.0865 13.3779C25.2601 14.2508 25.6887 15.0526 26.318 15.682C26.9474 16.3113 27.7492 16.7399 28.6221 16.9135C29.495 17.0872 30.3998 16.9981 31.2221 16.6575C32.0443 16.3169 32.7471 15.7401 33.2416 15.0001C33.7361 14.26 34 13.39 34 12.5C33.9978 11.3072 33.523 10.1639 32.6795 9.32047C31.8361 8.47704 30.6928 8.00222 29.5 8ZM29.5 14.9118C29.0225 14.9143 28.5549 14.7749 28.1567 14.5114C27.7584 14.248 27.4473 13.8722 27.2629 13.4317C27.0784 12.9912 27.0288 12.5059 27.1204 12.0373C27.2121 11.5686 27.4408 11.1377 27.7776 10.7991C28.1143 10.4606 28.5441 10.2296 29.0122 10.1355C29.4804 10.0415 29.966 10.0885 30.4074 10.2706C30.8488 10.4528 31.2262 10.7619 31.4918 11.1588C31.7574 11.5557 31.8992 12.0225 31.8992 12.5C31.8981 13.1371 31.6453 13.748 31.196 14.1997C30.7467 14.6514 30.1371 14.9073 29.5 14.9118Z" fill="#FF5400"/>
</g>
<defs>
<clipPath id="clip0_3498_526">
<rect width="42" height="42" fill="white"/>
</clipPath>
</defs>
</svg>
