<svg width="20" height="20" viewBox="0 0 20 20" fill="none" xmlns="http://www.w3.org/2000/svg">
<path d="M5.83333 7.9165L10 12.0832M10 7.9165L5.83333 12.0832M16.2435 11.6287L13.8007 14.7953C13.5068 15.1761 13.36 15.3665 13.1756 15.5038C13.0122 15.6253 12.8279 15.7158 12.6319 15.7709C12.4107 15.8332 12.1702 15.8332 11.6892 15.8332H5.16667C4.23324 15.8332 3.76653 15.8332 3.41002 15.6515C3.09641 15.4918 2.84144 15.2368 2.68166 14.9232C2.5 14.5667 2.5 14.0999 2.5 13.1665V6.83317C2.5 5.89975 2.5 5.43304 2.68166 5.07652C2.84144 4.76291 3.09641 4.50795 3.41002 4.34816C3.76653 4.1665 4.23324 4.1665 5.16667 4.1665H11.6892C12.1702 4.1665 12.4107 4.1665 12.6319 4.22873C12.8279 4.28385 13.0122 4.37442 13.1756 4.49595C13.36 4.63315 13.5068 4.82355 13.8007 5.20436L16.2435 8.371C16.6932 8.95392 16.918 9.24542 17.0045 9.56684C17.0807 9.85042 17.0807 10.1493 17.0045 10.4328C16.918 10.7543 16.6932 11.0458 16.2435 11.6287Z" stroke="#809FB8" stroke-width="1.5" stroke-linecap="round" stroke-linejoin="round"/>
</svg>
