<svg width="20" height="20" viewBox="0 0 20 20" fill="none" xmlns="http://www.w3.org/2000/svg">
<path fill-rule="evenodd" clip-rule="evenodd" d="M15.3724 2.17342L17.4505 3.86477C17.6512 4.06029 17.7637 4.32902 17.762 4.60916C17.7604 4.8893 17.6449 5.15673 17.442 5.34991L15.8628 7.27312L10.4885 13.8302C10.3955 13.9398 10.2702 14.0171 10.1306 14.0513L7.3441 14.6924C6.97435 14.7077 6.65551 14.435 6.61328 14.0674L6.74363 11.3182C6.75329 11.1779 6.80885 11.0446 6.90176 10.9389L12.0442 4.67252L13.8552 2.46297C14.207 1.98403 14.8689 1.85773 15.3724 2.17342Z" stroke="#809FB8" stroke-width="1.5" stroke-linecap="round" stroke-linejoin="round"/>
<path d="M2.80134 17.2162C2.35877 17.2162 2 17.5749 2 18.0175C2 18.4602 2.35877 18.8188 2.80134 18.8188V17.2162ZM17.4391 18.8188C17.8816 18.8188 18.2404 18.4602 18.2404 18.0175C18.2404 17.5749 17.8816 17.2162 17.4391 17.2162V18.8188ZM12.7865 4.3727C12.6208 3.96231 12.1539 3.7639 11.7435 3.92956C11.3331 4.09521 11.1347 4.56218 11.3003 4.97257L12.7865 4.3727ZM16.0386 8.05809C16.4703 7.96056 16.7411 7.53156 16.6437 7.09987C16.5462 6.66818 16.1172 6.39728 15.6854 6.49481L16.0386 8.05809ZM2.80134 18.8188H17.4391V17.2162H2.80134V18.8188ZM11.3003 4.97257C11.5489 5.58839 12.0594 6.46633 12.8196 7.14231C13.5938 7.8308 14.6964 8.36131 16.0386 8.05809L15.6854 6.49481C14.9987 6.64995 14.4056 6.40798 13.8847 5.94468C13.3496 5.46887 12.9653 4.81573 12.7865 4.3727L11.3003 4.97257Z" fill="#809FB8"/>
</svg>
