<svg width="24" height="24" viewBox="0 0 24 24" fill="none" xmlns="http://www.w3.org/2000/svg">
<g clip-path="url(#clip0_8015_298)">
<path d="M5.22473 13.5966L12.2877 21.2961C12.8585 21.9689 12.7758 22.9771 12.103 23.5479C11.4301 24.1187 10.4219 24.036 9.85112 23.3632L0.458687 13.1243C0.323628 12.9886 0.214184 12.8296 0.135625 12.655C0.0379321 12.438 -0.0099337 12.2018 -0.00446123 11.9639L-0.0044378 11.9624C0.00100052 11.725 0.0591619 11.4918 0.165836 11.2796C0.176209 11.2591 0.187024 11.2387 0.198273 11.2187C0.26337 11.1022 0.342922 10.9944 0.435039 10.8979L10.0772 0.494994C10.677 -0.152139 11.6879 -0.190482 12.335 0.409307C12.9821 1.0091 13.0204 2.01995 12.4206 2.66706L5.25194 10.4013H22.3721C23.2544 10.4013 23.9697 11.1166 23.9697 11.999C23.9697 12.8813 23.2544 13.5966 22.3721 13.5966H5.22473V13.5966Z" fill="#878A99"/>
</g>
<defs>
<clipPath id="clip0_8015_298">
<rect width="24" height="24" fill="white"/>
</clipPath>
</defs>
</svg>
