<svg width="16" height="16" viewBox="0 0 16 16" fill="none" xmlns="http://www.w3.org/2000/svg">
<g opacity="0.5">
<path opacity="0.5" d="M8.54275 2C6.08313 2 4 4.09519 4 6.57664C4 9.17547 6.41463 11.8332 8.03875 13.7011C8.04513 13.7086 8.30763 14 8.63088 14H8.65937C8.983 14 9.24363 13.7086 9.25 13.7011C10.774 11.9491 13 9.0596 13 6.57664C13 4.09482 11.3751 2 8.54275 2ZM8.69312 13.1979C8.68 13.211 8.66088 13.2256 8.644 13.238C8.62675 13.226 8.608 13.211 8.59412 13.1979L8.398 12.9721C6.85825 11.2058 4.74963 8.78659 4.74963 6.57627C4.74963 4.5017 6.48663 2.74927 8.54238 2.74927C11.1033 2.74927 12.2496 4.67121 12.2496 6.57627C12.2496 8.25407 11.053 10.4824 8.69312 13.1979ZM8.51312 4.2707C7.27075 4.2707 6.26312 5.27798 6.26312 6.52077C6.26312 7.76355 7.27075 8.77084 8.51312 8.77084C9.7555 8.77084 10.7631 7.76318 10.7631 6.52077C10.7631 5.27835 9.75588 4.2707 8.51312 4.2707ZM8.51312 8.02081C7.68587 8.02081 6.99588 7.33154 6.99588 6.50427C6.99588 5.67699 7.66863 5.00422 8.49588 5.00422C9.3235 5.00422 9.99588 5.67699 9.99588 6.50427C9.99625 7.33154 9.34075 8.02081 8.51312 8.02081Z" fill="black" stroke="black" stroke-width="0.5"/>
</g>
</svg>
