<svg width="5" height="24" viewBox="0 0 5 24" fill="none" xmlns="http://www.w3.org/2000/svg">
<path fill-rule="evenodd" clip-rule="evenodd" d="M0 21.4994V21.3575C0 20.4643 0.47644 19.6389 1.25 19.1924C2.02356 18.7458 2.97644 18.7458 3.75 19.1924C4.52356 19.6389 5 20.4643 5 21.3575V21.4994C5 22.3926 4.52356 23.2179 3.75 23.6645C2.97644 24.1111 2.02356 24.1111 1.25 23.6645C0.47644 23.2179 0 22.3926 0 21.4994ZM0 12.0714V11.9285C0 11.0353 0.47644 10.21 1.25 9.76346C2.02356 9.3168 2.97644 9.3168 3.75 9.76346C4.52356 10.21 5 11.0353 5 11.9285V12.0714C5 12.9646 4.52356 13.7899 3.75 14.2365C2.97644 14.6831 2.02356 14.6831 1.25 14.2365C0.47644 13.7899 0 12.9646 0 12.0714ZM0 2.64346V2.50052C0 1.60733 0.47644 0.782013 1.25 0.33548C2.02356 -0.111176 2.97644 -0.111176 3.75 0.33548C4.52356 0.782013 5 1.60733 5 2.50052V2.64346C5 3.53665 4.52356 4.36197 3.75 4.8085C2.97644 5.25516 2.02356 5.25516 1.25 4.8085C0.47644 4.36197 0 3.53665 0 2.64346Z" fill="#D9E1E7"/>
</svg>
