<svg width="20" height="20" viewBox="0 0 20 20" fill="none" xmlns="http://www.w3.org/2000/svg">
<path fill-rule="evenodd" clip-rule="evenodd" d="M9.62582 18.4444C4.31988 18.4444 0 14.3555 0 9.33328C0 4.31106 4.31988 0.222168 9.62582 0.222168C14.9318 0.222168 19.2516 4.31106 19.2516 9.33328C19.2516 14.3555 14.9318 18.4444 9.62582 18.4444ZM9.62648 1.55566C5.09061 1.55566 1.40932 5.049 1.40932 9.33344C1.40932 13.6179 5.09061 17.1112 9.62648 17.1112C14.1624 17.1112 17.8436 13.6179 17.8436 9.33344C17.8436 5.049 14.1624 1.55566 9.62648 1.55566Z" fill="#809FB8"/>
<path d="M19.2986 19.3332C19.1202 19.3332 18.9417 19.271 18.8009 19.1377L15.9836 16.471C15.7112 16.2132 15.7112 15.7866 15.9836 15.5288C16.2559 15.271 16.7067 15.271 16.979 15.5288L19.7963 18.1955C20.0687 18.4532 20.0687 18.8799 19.7963 19.1377C19.6555 19.271 19.477 19.3332 19.2986 19.3332Z" fill="#809FB8"/>
</svg>
