<svg width="7" height="12" viewBox="0 0 7 12" fill="none" xmlns="http://www.w3.org/2000/svg">
    <path d="M2.83624 11.4778L0.771238 8.96179C0.526304 8.66309 0.47534 8.24988 0.640379 7.90063C0.805418 7.55127 1.15686 7.32825 1.54321 7.32776H5.67419C6.06054 7.32825 6.41199 7.55127 6.57702 7.90063C6.74206 8.24988 6.6911 8.66309 6.44617 8.96179L4.38116 11.4778C4.19122 11.7092 3.90759 11.8434 3.60815 11.8434C3.30871 11.8434 3.02508 11.7092 2.83514 11.4778H2.83624Z" 
        fill="#99B2C6"/> 
    <path d="M1.49225 4.66882C1.10357 4.66895 0.75012 4.44373 0.585874 4.09155C0.421629 3.73926 0.476377 3.32373 0.726255 3.026L2.83423 0.513916C3.02423 0.287476 3.30462 0.156738 3.60022 0.156738C3.89581 0.156738 4.17621 0.287476 4.36621 0.513916L6.47522 3.02588C6.7251 3.32373 6.77984 3.73926 6.6156 4.09155C6.45135 4.44373 6.0979 4.66895 5.70923 4.66895L1.49225 4.66882Z"
        fill="#99B2C6"/> 
</svg>
