<svg width="28" height="28" viewBox="0 0 28 28" fill="none" xmlns="http://www.w3.org/2000/svg">
<path d="M23.8671 22C24.3783 20.9999 24.6667 19.8669 24.6667 18.6667C24.6667 14.6165 21.3835 11.3333 17.3333 11.3333C13.2832 11.3333 10 14.6165 10 18.6667C10 22.7168 13.2832 26 17.3333 26H26C26 26 24.6667 24.6667 23.8857 22.0389M23.1333 14C23.2645 13.3537 23.3333 12.6849 23.3333 12C23.3333 6.47715 18.8561 2 13.3333 2C7.81048 2 3.33333 6.47715 3.33333 12C3.33333 13.1688 3.53385 14.2908 3.90235 15.3333C5.33464 19.3489 2 22 2 22H10.6667" stroke="#FF5400" stroke-width="2" stroke-linecap="round" stroke-linejoin="round"/>
</svg>
