<svg width="24" height="23" viewBox="0 0 24 23" fill="none" xmlns="http://www.w3.org/2000/svg">
<path d="M8.69071 2.2998C6.68275 2.2998 5.12708 4.12527 5.12708 6.27818C5.12708 8.4311 6.68275 10.2566 8.69071 10.2566C10.6987 10.2566 12.2543 8.4311 12.2543 6.27818C12.2543 4.12527 10.6987 2.2998 8.69071 2.2998ZM8.69071 3.2944C10.0567 3.2944 11.2362 4.586 11.2362 6.27818C11.2362 7.97037 10.0567 9.26197 8.69071 9.26197C7.32472 9.26197 6.14526 7.97037 6.14526 6.27818C6.14526 4.586 7.32472 3.2944 8.69071 3.2944ZM17.5998 4.53764C16.1312 4.53764 15.0543 5.93317 15.0543 7.52143C15.0543 9.10968 16.1312 10.5052 17.5998 10.5052C19.0684 10.5052 20.1453 9.10968 20.1453 7.52143C20.1453 5.93317 19.0684 4.53764 17.5998 4.53764ZM17.5998 5.53224C18.3805 5.53224 19.1271 6.36319 19.1271 7.52143C19.1271 8.67967 18.3805 9.51062 17.5998 9.51062C16.8191 9.51062 16.0725 8.67967 16.0725 7.52143C16.0725 6.36319 16.8191 5.53224 17.5998 5.53224ZM8.69071 11.2512C6.57594 11.2512 4.6628 11.6657 3.2339 12.3856C1.80499 13.1055 0.799805 14.1813 0.799805 15.4782V20.2025C0.799818 20.3344 0.853459 20.4609 0.948929 20.5541C1.0444 20.6474 1.17388 20.6998 1.3089 20.6998H16.0725C16.2075 20.6998 16.337 20.6474 16.4325 20.5541C16.528 20.4609 16.5816 20.3344 16.5816 20.2025V18.462H22.6907C22.8257 18.462 22.9552 18.4096 23.0507 18.3163C23.1462 18.223 23.1998 18.0966 23.1998 17.9647V14.7322C23.1998 13.7473 22.4645 12.9293 21.4498 12.3778C20.4351 11.8264 19.088 11.4998 17.5998 11.4998C16.1965 11.4998 14.9248 11.7968 13.9328 12.2924C12.5288 11.6351 10.704 11.2512 8.69071 11.2512ZM8.69071 12.2458C10.6655 12.2458 12.4386 12.6469 13.6782 13.2714C14.9178 13.896 15.5634 14.6935 15.5634 15.4782V19.7052H1.81799V15.4782C1.81799 14.6935 2.46359 13.896 3.70321 13.2714C4.94283 12.6469 6.71596 12.2458 8.69071 12.2458ZM17.5998 12.4944C18.932 12.4944 20.131 12.7994 20.9566 13.2481C21.7823 13.6969 22.1816 14.2478 22.1816 14.7322V17.4674H16.5816V15.4782C16.5816 14.4666 15.9698 13.5926 15.0225 12.914C15.7538 12.6558 16.6398 12.4944 17.5998 12.4944Z" fill="#809FB8"/>
</svg>
