<svg width="28" height="28" viewBox="0 0 28 28" fill="none" xmlns="http://www.w3.org/2000/svg">
<path d="M1 9.46153C1 7.57054 1.10263 6.11922 1.35216 4.99641C1.59917 3.88496 1.97663 3.15766 2.48438 2.64991C2.99213 2.14216 3.71944 1.7647 4.83088 1.51769C5.95369 1.26816 7.40501 1.16553 9.296 1.16553H18.704C20.595 1.16553 22.0463 1.26816 23.1691 1.51769C24.2805 1.7647 25.0078 2.14216 25.5156 2.64991C26.0233 3.15766 26.4008 3.88497 26.6478 4.99642C26.8974 6.11922 27 7.57054 27 9.46153V18.8695C27 20.7605 26.8974 22.2118 26.6478 23.3346C26.4008 24.4461 26.0233 25.1734 25.5156 25.6811C25.0078 26.1889 24.2805 26.5663 23.1691 26.8134C22.0463 27.0629 20.595 27.1655 18.704 27.1655H9.296C7.40501 27.1655 5.95369 27.0629 4.83089 26.8134C3.71944 26.5663 2.99214 26.1889 2.48439 25.6811C1.97663 25.1734 1.59917 24.4461 1.35216 23.3346C1.10263 22.2118 1 20.7605 1 18.8695V9.46153Z" stroke="#FF5400" stroke-width="2"/>
<path d="M28 7.94336H0" stroke="#FF5400" stroke-width="2" stroke-linecap="round" stroke-linejoin="round"/>
<path d="M7.77734 7.94292V1.7207" stroke="#FF5400" stroke-width="2" stroke-linecap="round" stroke-linejoin="round"/>
</svg>
